<svg viewBox="0 0 217 217" xmlns="http://www.w3.org/2000/svg"><circle cx="105.5" cy="108.5" fill="none" r="47" stroke="#39b54a" stroke-miterlimit="10" stroke-width="9"/><path d="m73.8 62.27a2 2 0 0 0 1.11 1.29 1.32 1.32 0 0 0 .78.15 1.49 1.49 0 0 0 .74-.13c.15-.06 6.68-4.39 14.51-9.61l14.23-9.49 14.23 9.52c7.83 5.22 14.36 9.55 14.51 9.61a1.34 1.34 0 0 0 .73.13 1.41 1.41 0 0 0 .79-.15 2.8 2.8 0 0 0 .54-.35 2.05 2.05 0 0 0 .61-1.71c0-.25-1.88-4-14.93-30.09-14.25-28.54-14.91-29.84-15.14-30.04a2.09 2.09 0 0 0 -1.13-.52 2 2 0 0 0 -1.65.61c-.15.17-3.79 7.41-15.08 30l-14.88 29.77v.39a2.25 2.25 0 0 0 .03.62z" fill="#39b54a"/><circle cx="108.5" cy="108.5" fill="none" r="108.5"/></svg>