<svg viewBox="0 0 595.34 440.2" xmlns="http://www.w3.org/2000/svg"><g fill="#2ecc71"><path d="m594.29 78.11a79.58 79.58 0 0 0 -10.9-32.11c-18.39-30.55-45.61-45.83-81.3-45.83h-302.86c-36.62 0-73.23-.47-109.86.16-50.21.87-89.02 40.19-89.2 90.4-.31 86.27-.11 172.46-.06 258.68 0 16 3.72 31.16 12 44.85 18.42 30.52 45.66 45.74 81.35 45.74q164.79 0 329.59 0c28.49 0 57 .75 85.45-.35 35.23-1.37 60.79-19.09 77.41-50 4.88-9.07 6.44-19.18 9.43-28.84v-280.26c-1.16-.46-.94-1.55-1.05-2.44zm-24.73 268.06c0 40.09-27.91 68-67.86 68q-102.29 0-204.57 0t-204.56 0c-32.48 0-58.1-20.29-65.11-51.29a75.59 75.59 0 0 1 -1.62-16.73q0-126.1 0-252.22c0-40.08 27.9-68 67.86-68q204 0 408 0c39.95 0 67.84 27.95 67.86 68q.06 126.14 0 252.24z"/><path d="m103.56 220q0 63.35 0 126.68c0 9.63-4.8 15.37-12.72 15.46a12.46 12.46 0 0 1 -12.68-10.51 42.32 42.32 0 0 1 -.32-6.95q0-124.64 0-249.28c0-11.69 4.36-17.56 13-17.49s12.77 6 12.77 17.74z"/><path d="m517.61 220.06q0 63.35 0 126.68c0 9.3-4.13 14.66-11.54 15.31-6.58.59-11.64-2.94-13.56-9.28-.81-2.67-.62-5.37-.63-8.06q0-124.65 0-249.29v-1.16c0-10.53 4.74-16.41 13.05-16.31 8.11.09 12.69 5.8 12.69 16q.01 63.05-.01 126.11z"/><path d="m284.84 220.07q0-63.34 0-126.68c0-9.68 4.77-15.36 12.71-15.45a12.51 12.51 0 0 1 12.68 10.53 40.11 40.11 0 0 1 .33 6.94q0 124.65 0 249.29v2.91c-.19 9-5.2 14.65-13 14.57s-12.7-5.68-12.71-14.86q-.07-63.63-.01-127.25z"/><path d="m155.43 194.49q0 49.11 0 98.23c0 11.57-4.48 17.78-12.87 17.89s-13.16-6.29-13.16-17.61q0-99.11 0-198.2c0-11.72 5.54-17.87 14.92-16.6 5.58.75 9.12 4 10.35 9.45a36.82 36.82 0 0 1 .73 8.06q.06 49.37.03 98.78z"/><path d="m259 194.49q0 49.11 0 98.23c0 11.54-4.52 17.79-12.89 17.89s-13.15-6.29-13.15-17.65q0-99.09 0-198.2c0-11.47 5.26-17.57 14.35-16.67 5.85.57 9.6 3.84 10.91 9.53a36.23 36.23 0 0 1 .75 8.06q.03 49.4.03 98.81z"/><path d="m362.52 193.9v98.81c0 11.52-4.52 17.78-12.9 17.9s-13.14-6.28-13.14-17.64q0-99.11 0-198.2c0-11 4.75-17 13.16-16.86a12.16 12.16 0 0 1 12.06 9.72 39.29 39.29 0 0 1 .79 8q.08 49.15.03 98.27z"/><path d="m440 193.9q0-49.41 0-98.81c0-4 0-8.1 2.54-11.67 3.28-4.67 7.78-6.16 13.16-5.13a11.3 11.3 0 0 1 9.42 9 31.68 31.68 0 0 1 .87 7.45q.06 99.39 0 198.79c0 9.3-2.84 14.24-9.19 16.22-7.46 2.32-14.7-1.89-16.17-9.58a39.13 39.13 0 0 1 -.64-7.49q.01-49.37.01-98.78z"/><path d="m207.09 193.87q0 49.68 0 99.36a48 48 0 0 1 -.11 5.23c-.75 6.89-6.11 12-12.6 12.13-6.73.13-12.28-5.13-12.94-12.35-.15-1.73-.11-3.48-.11-5.22v-197.57c0-11.65 4.39-17.56 13-17.5s12.8 6 12.8 17.72z"/><path d="m414.11 194.4q0 49.4 0 98.78a42.41 42.41 0 0 1 -.27 6.38 12.67 12.67 0 0 1 -24.95 1 35.27 35.27 0 0 1 -.52-7.49q0-98.79 0-197.56c0-11.65 4.41-17.61 13-17.56s12.81 5.92 12.81 17.67z"/><path d="m142.28 362.21a12.83 12.83 0 0 1 -12.71-13 13 13 0 0 1 13.27-12.46 12.84 12.84 0 0 1 12.39 12.75 12.68 12.68 0 0 1 -12.95 12.71z"/><path d="m194.05 362.19a12.7 12.7 0 1 1 .54-25.39 13.15 13.15 0 0 1 12.41 12.72 12.81 12.81 0 0 1 -12.95 12.67z"/><path d="m349.5 362.23a12.72 12.72 0 1 1 .24-25.44 12.72 12.72 0 1 1 -.24 25.44z"/><path d="m414 348.73a12.8 12.8 0 1 1 -13.67-11.82 12.59 12.59 0 0 1 13.67 11.82z"/><path d="m453.14 362.21a12.67 12.67 0 1 1 0-25.33 13 13 0 0 1 12.75 12.4 12.82 12.82 0 0 1 -12.75 12.93z"/><path d="m246 362.23a12.73 12.73 0 1 1 12.74-12.9 12.88 12.88 0 0 1 -12.74 12.9z"/></g></svg>