<svg viewBox="0 0 488.43 516.89" xmlns="http://www.w3.org/2000/svg"><path d="m458 376.63c-26.59-20.78-55.88-22.61-85.91-7.06-3.82 2-6.47 1.78-10-.27q-83.82-48.6-167.82-96.91c-6.11-3.51-11.64-6.54-9.08-15a5.27 5.27 0 0 0 -.2-2.5c-.79-3.42.47-5.32 3.62-7.13q87.27-50.14 174.39-100.65c3.22-1.87 5.5-1.77 8.64 0a76.2 76.2 0 0 0 48 9.42c39.54-4.78 70-40.18 68.65-79.83-1.42-41.31-34-74.84-74.44-76.63-44.3-2-80.67 31.3-82.71 75.79-.14 3.09-1.19 4.67-3.83 6.19q-87.31 50.23-174.37 100.69c-2.75 1.59-4.59 1.93-7.51-.1-55.64-38.83-131.85-7.09-144 59.85-6.54 36.08 9.77 73.75 40.46 93.43 32 20.55 72.52 20.14 102.93-1.26 3-2.13 5.07-2.39 8.35-.48q86.64 50.26 173.47 100.2c3.11 1.79 4.3 3.7 4.56 7.35q3.27 46 44.3 67.3c7.64 4 16.08 5.17 24.08 7.86h18.17c1.76-1.73 4.08-.78 6.1-1.25 32.65-7.43 54.41-27 62.11-59.57 7.51-31.8-2.23-59.31-27.96-79.44zm5.51 95.23c-12.48 21-38.4 33.24-61.49 29.56-27.55-4.39-45.53-20-53.78-46.67a43.53 43.53 0 0 1 -2.07-17.93c.75-6.37-2.12-9.73-7.38-12.75q-91.89-52.8-183.59-105.92c-6.81-3.93-8.23-3.75-14.44 1-22.89 17.35-48 21.66-75.1 12-30.4-10.83-50.88-40.58-50.7-77.67 1.57-26.77 15.34-50.88 44-64.7 28.4-13.69 55.77-10.14 81.12 8.5 7.25 5.33 8 5.57 15.67 1.14q91.54-52.9 183.15-105.67c5.31-3 7.44-6.56 7.3-12.83a63.46 63.46 0 0 1 56.91-64.68c31.89-3.5 61.77 18.27 68.89 50.2 5.4 24.32-4.79 50.2-25.66 65.11-20.4 14.58-48.31 15.88-69.25 2.28-7-4.51-12.1-4.36-19.14-.25q-90.68 52.88-181.78 105c-5.26 3-7.73 6.63-6.67 12.6a56.33 56.33 0 0 1 -.08 17.58c-.7 5.2 1.51 8.37 6 11q71.81 41.24 143.47 82.74c13.66 7.89 27.45 15.57 40.9 23.8 5.65 3.46 10 3.25 15.62-.33 29.37-18.78 67-11.56 86.42 17.15 15.28 22.53 15.63 46.29 1.67 69.74z" fill="#2ecc71"/></svg>