<svg viewBox="0 0 304.34 307.49" xmlns="http://www.w3.org/2000/svg"><path d="m304.33 72.41a22.36 22.36 0 0 0 -6.21-12.13c-7.55-8.14-15.12-16.28-23-24.1-6.23-6.19-13.32-7.55-18-3.21-3.09 2.89-4.57 1.93-7.09-.3-11-9.7-23.24-17.78-37.11-22.32-60.78-19.91-116.49-12.07-164.92 32-15.33 13.95-27.39 30.51-34.83 49.78-22.17 57.54-16.89 111.94 20.18 162.29.94 1.29 3.47 2.44 1.08 4.6-6.15 5.54-3.87 11.48-.41 17.06a88.24 88.24 0 0 0 27.79 28c7.86 5 11.17 4.5 17.78-2q39.61-38.94 78.78-78.32c47-47.36 93.65-95.13 140.91-142.27a30.55 30.55 0 0 0 3-3.22 8.75 8.75 0 0 0 2.05-5.86zm-260.55 169.51a152.26 152.26 0 0 1 -27-72.4c-.49-4.82-.62-9.67-.9-14.24.6-47.28 19.39-84.37 56.73-113.87 40.62-32.08 108.91-34.18 153.47-6.36 2.2 1.37 3.46 3.48 5.45 4.92 3.56 2.58 9.69 4.62 9.76 8.22.08 4.29-5.86 7-9.08 10.49-2.71 3-6 5.41-8.41 8.57-3.69 4.87-6.89 4.92-11.73 1.24-3.28-2.5-3.54-4.16-1.82-7.48 1.37-2.65 3.21-6-1-8.11-3.83-1.95-5.58 1.17-7 3.5-2.11 3.58-4.19 4.72-7.91 2.22a16.76 16.76 0 0 0 -5.87-2.26c-3.86-.81-5.25-2.6-4.07-6.63.85-2.93 1.85-6.64-2.47-7.91-4.75-1.41-5.87 2.64-6.63 5.73-1 4.13-3 5-6.7 3.6a9 9 0 0 0 -3.75-.46c-5.5.42-8.54-1.43-8.67-7.54-.05-2.47-.06-6.44-4.27-6.42s-4.66 4-4.43 6.4c.64 6.52-3.15 7.08-7.89 7.19a16.91 16.91 0 0 0 -4.39.51c-3.6 1.07-5.86.41-6.88-3.67-.77-3.06-2.16-6.41-6.42-5.23-4.09 1.13-3.11 4.76-2.51 7.41.88 3.84 0 5.9-4 6.7a15.1 15.1 0 0 0 -4.6 1.96c-4 2.4-7.32 3.34-9.91-2-1.21-2.6-3.79-4.31-6.88-2.3-2.76 1.82-1.67 4.41-1 6.85.6 2.12 3.62 4.27 1.71 6.2a72.58 72.58 0 0 1 -11.88 9.31c-.59.38-2.95-1.91-4.48-3-2.41-1.68-4.87-4-7.8-1.22s-.93 5.84 1.26 7.55c5.67 4.44 1.43 7.39-.73 11.25-3 5.32-6.06 7.88-11.93 3.93-2.18-1.47-5-1.89-6.71.85-1.94 3 0 5 2.26 7 2 1.74 6.29 2.54 5.86 5-.81 4.64-3 9.16-5.24 13.39-.95 1.79-3.49.32-5.31 0-2.49-.45-5-1.12-7.41.21a3.82 3.82 0 0 0 -1.9 3.74c.1 2.59 2.14 3.3 3.94 4.42 2.44 1.51 7.19.72 7.39 3.74.33 4.92-1.08 10-1.9 15-.26 1.65-1.83 1.35-3.06 1.49-2.08.25-4.17.55-6.23.94-2.31.43-3.88 1.63-3.77 4.24.1 2.27 1.58 3.9 3.54 3.75 9.43-.73 9.18 5.54 9.81 12.1.4 4.23 0 6.6-4.45 7.8-2.77.76-6 2-4.69 6.07 1.11 3.45 4.17 3.63 6.79 2.69 4.43-1.6 5.46.78 6.23 4.2a28.17 28.17 0 0 0 1.88 6c1.66 3.46 2.59 6.4-1.75 8.81-2.09 1.15-3.28 3.34-1.54 5.9 1.61 2.38 3.84 2.56 6.11 1.42 6.38-3.22 5.7 3.62 8.28 5.74s1.42 3.73-.39 6.12c-4.85 6.4-11 11.47-16.23 17.48-3.01 3.48-4.61 2.52-6.88-.75zm111.91-111.47c-13.9-3-28.89 13.66-26.24 26.37.77 3.71-.41 6.14-3.09 8.76-15.35 15-30.49 30.28-45.7 45.46-22.45-26.28-24-85.2 7.45-119.85 33.77-37.25 88.89-31.82 119.54-8.27-1.67 1.75-3.28 3.53-5 5.22-13.13 13.1-26.31 26.15-39.41 39.29-2.13 2.16-4.05 3.78-7.55 3.02zm6.7 23.9a10.1 10.1 0 0 1 -20.2.38 10.1 10.1 0 1 1 20.2-.38zm123-80.07c-.33.27-.6.6-.9.9-49.48 49.12-98 99.18-147.23 148.56-20.49 20.55-41.11 41-61.51 61.65-5.37 5.44-7.36 5.55-13.43.8a48.4 48.4 0 0 1 -12.32-13.41c-2.1-3.57-2.11-6.75 1.33-9.5.16-.14.3-.3.45-.45 28.09-27.87 54.77-57.13 83.2-84.67 2.95-2.86 5-4.2 9.6-2.42 15 5.88 30.73-5.37 30.7-22a4.85 4.85 0 0 0 -.19-2.49c-6.19-10.42 2.16-16.08 7.82-21.83 25.88-26.3 52.22-52.15 78.2-78.34 4.19-4.22 7.72-4.18 12-.73a96.54 96.54 0 0 1 12.86 13c3.13 3.7 3.65 7.51-.62 10.93z" fill="#2ecc71"/></svg>