<svg viewBox="0 0 314.06 353.71" xmlns="http://www.w3.org/2000/svg"><g fill="#2ecc71"><path d="m284.38 104.74c-2-2.86-6.06-6-5.69-8.45.44-3 4.69-5.28 7.17-8a5 5 0 0 1 5-1.87c4.55.66 7.24-2.44 9.34-5.83 1.91-3.09 1.35-6.33-1.09-8.9q-6.76-7.14-13.91-13.91a7.63 7.63 0 0 0 -9.57-.57c-4.35 3-6.78 7.43-4.59 10.67 2.57 3.81.39 5.35-1.81 7.42-.84.79-1.63 1.62-2.45 2.44-3.32 3.32-3.29 3.28-6.74.29a156 156 0 0 0 -81.58-37.15c-7.4-1.07-7.37-.92-7.21-8.06 0-1.64.27-2.38 2.21-2.45a12.17 12.17 0 0 0 10-5.8c2.75-4.14 2.48-8.78 1.92-13.36a12.48 12.48 0 0 0 -12.08-11.1c-10.82-.11-21.64-.11-32.46-.01a12.69 12.69 0 0 0 -11.87 9 23.58 23.58 0 0 0 -.43 10.27c.79 5.42 4 8.76 9.1 10.64 1.66.61 4.1-.54 4.87 1.39.64 1.59.16 3.63.17 5.47a12.69 12.69 0 0 0 0 1.38c.21 1.49-.47 1.91-1.91 2.07-4 .44-8 1-11.94 1.7-29.9 5.43-56.34 18.23-78.36 39.16-40.18 38.21-56.38 85.24-48.56 140 4.64 32.56 19.22 60.71 42.09 84.35 23.35 24.17 51.61 39.47 84.76 45.47 5.7 1 11.46 1.8 17.19 2.69h22.79c.15-.54.56-.62 1-.64a140.29 140.29 0 0 0 29.53-5.05c59.62-16.21 105-68.18 113.25-129.69 5.55-41.53-3.96-79.38-28.14-113.57zm-127.24 228c-74.67.5-136.08-60.89-136.27-136.23-.19-75.03 60.64-135.91 136.13-136.23 74.63-.31 135.82 60.86 136.1 136.06s-60.33 135.92-135.96 136.43z"/><path d="m164.07 134c0 11.85.05 23.7 0 35.54 0 2 .35 3.14 2.51 4a24.56 24.56 0 0 1 14.84 28 24.92 24.92 0 1 1 -34.19-27.93c2.16-.93 2.81-1.89 2.8-4.19q-.13-35.37-.05-70.75c0-4.67 2.08-7.57 5.72-8.19 4.73-.81 8.36 2.35 8.39 7.57.03 12.02-.02 23.95-.02 35.95z"/></g></svg>