<svg viewBox="0 0 328.52 328.49" xmlns="http://www.w3.org/2000/svg"><g fill="#2ecc71"><path d="m164.39 0c-90.39 0-164.25 73.68-164.39 164-.13 90 73.16 164.38 164.13 164.47 90.6.09 164.39-73.72 164.39-164.21.02-90.84-74.15-164.21-164.13-164.26zm-.14 295.64a131.4 131.4 0 1 1 131.42-131.38 131.09 131.09 0 0 1 -131.42 131.38z"/><path d="m180.68 118.52v36.37 1.34a1.4 1.4 0 0 0 .51 1.18c.38.35.73.72 1.1 1.08l41.09 40.82c.73.73 1.49 1.42 2.17 2.19 4.25 4.82 5.58 10.38 3.51 16.45a15.63 15.63 0 0 1 -12.8 10.89 15.92 15.92 0 0 1 -14-4.22c-.48-.43-.92-.9-1.38-1.35l-46.82-46.52c-.55-.54-1.11-1.07-1.63-1.64a16.06 16.06 0 0 1 -4.56-11.11c0-.38 0-.77 0-1.15q0-39.93 0-79.86a18.31 18.31 0 0 1 .88-6.24 16.42 16.42 0 0 1 31.62 2.15 20.13 20.13 0 0 1 .32 4z"/></g></svg>