<svg viewBox="0 0 268.05 376.75" xmlns="http://www.w3.org/2000/svg"><g fill="#2ecc71"><path d="m267.47 121a104.12 104.12 0 0 0 -2.17-13.77c-13.73-54.92-47.67-91.13-102.79-103.5-54.35-12.2-100.2 5.84-134.72 49.4-23.71 29.87-32.42 64.61-25.47 102.57 4.69 25.54 15.26 49 27.3 71.73 28.15 53.25 64.09 101.14 102.09 147.57 2.51 3.07 3.36 1.48 5-.48 15.47-18.68 30.69-37.56 44.9-57.23 27-37.44 52.34-75.95 70.56-118.62 9-21 15.94-42.58 15.89-67-.15-2.76-.15-6.76-.59-10.67zm-18.88 19.83c-1.27 18-7.33 35-14.54 51.45-19.74 45.15-47.2 85.57-76.54 124.83-6.86 9.18-14 18.11-21 27.25-1.77 2.35-2.66 3.05-4.9.2-33.52-42.79-65.27-86.73-89.61-135.56-10-19.89-18.85-40.31-21.76-62.62-4.16-31.81 4.56-60.27 24.51-85.06 22.44-27.87 54.35-42.71 89.45-42.67 66.28.09 119.05 56.23 114.39 122.13z"/><path d="m134.25 83.17c-27.89-.16-51.14 23-51.21 50.92s22.91 51.26 50.79 51.36 51.13-23 51.2-50.94a51.36 51.36 0 0 0 -50.78-51.34zm-.31 83.09a31.9 31.9 0 1 1 32-32 32.12 32.12 0 0 1 -32 32z"/></g></svg>