<svg viewBox="0 0 2099.15 2099.03" xmlns="http://www.w3.org/2000/svg"><g fill="#2ecc71"><path d="m2099 1012.59a782.07 782.07 0 0 0 -2.76-82.71c-3.36-36.16-9.81-71.9-17.61-107.38-16.57-75.44-40.9-148.29-73.87-218.12-45.22-95.77-102.76-183.38-174.27-261.76-55.66-61.07-117.17-115.29-185.3-162-85.19-58.38-176.86-103.49-275.42-134.62-91.67-28.85-185.09-46.81-281.58-46h-74.59c-25.6-.18-51.27.36-76.7 2.8-53.45 5.2-106.01 15.54-157.9 29.2-98.34 25.9-190.63 65.89-277.18 118.86-81.32 49.76-154.82 109.14-219.82 179.33-37.39 40.42-72 82.81-102.88 128.43a1048.28 1048.28 0 0 0 -157.48 367.68c-9.32 43.28-16.84 86.86-18.92 131.28-.72 15.42.93 31.18-2.72 46.42v84c2 10.87 2.05 21.86 2 32.86a396.75 396.75 0 0 0 2.29 42.78c14.49 138.23 55.61 268.26 122.21 390 55.86 102 126.5 192.83 212.76 271.36a1071.62 1071.62 0 0 0 127.83 100.5q137.78 91.76 297.19 136.8c75.23 21.07 151.58 35.24 230 35.73 7.56.6 15.23-1.22 22.72 1h74c3.4-2.06 7.14-.84 10.7-1 23.89-.75 47.84-.67 71.62-3.46a1044.71 1044.71 0 0 0 384.52-123c108.9-59.7 203.51-137 285.44-229.87a1015.9 1015.9 0 0 0 171.53-270.37c53.23-123.12 86.06-250.9 84.22-386.11zm-132.27 47c-5.55 498.73-412.8 906.35-916.18 905.63-503.37 1.15-921.21-409.82-916.24-925.5 4.88-505.07 418.81-912.12 926.11-906.78 506.7 5.38 911.91 422.1 906.3 926.69z"/><path d="m1539.91 890.78c-1-29.58-20.15-48.21-49.7-48.28q-31.47-.06-62.93 0c-9.37 0-8.46.31-8.46-8.83 0-33.63-.11-67.26 0-100.89a369.69 369.69 0 0 0 -8.88-83.21c-43.59-193.57-232.18-317.57-427.65-281.22-135.08 25.12-246.39 125.78-285.1 257.54-10.31 35.08-15 70.9-15.2 107.34-.2 32.63 0 65.27 0 97.9 0 11.36 0 11.36-11.83 11.36-20.65 0-41.29-.14-61.94 0-22.94.21-41.15 15-46 36.9-1.3 5.92-.91 11.94-.91 17.92v625.35c0 3.33 0 6.66.16 10 1 19.11 13 34.84 31.1 41.2 7.09 2.5 14.37 2.48 21.69 2.48h871.09c4.32 0 8.67 0 13-.41 21.23-2.06 37.55-17.77 40.74-38.91a104.71 104.71 0 0 0 .89-15.93v-622.35c0-2.64 0-5.3-.07-8zm-441.42 312.7c-4.12 3.35-5.49 6.66-5.46 11.76.2 31.62.27 63.24 0 94.86-.14 18-8.62 31.25-24.79 39-25.12 12-54.88-3.75-59.55-31.24a80.7 80.7 0 0 1 -1-12.9c-.13-14.65-.05-29.3-.05-43.94 0-15.31-.17-30.63.09-45.94.09-5.06-1.35-8.31-5.42-11.76-25.16-21.34-34.9-48.53-26.08-80.45s31-50.57 63.44-56.14c42.72-7.33 84.83 26.67 87.66 70 1.78 27.22-7.73 49.6-28.84 66.75zm172.72-361h-438.55a68.1 68.1 0 0 0 -7 0c-4.56.48-5.54-1.79-5.49-5.85.44-40.28-1.26-80.59.78-120.84 5.16-102 82.18-190.95 182-211 122.08-24.55 239.18 48.44 270.71 168.82a214.45 214.45 0 0 1 7.09 54.29q.06 52.47 0 104.9c0 10.55 1.35 9.68-9.54 9.68z"/></g></svg>