<svg viewBox="0 0 408.58 409.45" xmlns="http://www.w3.org/2000/svg"><g fill="#2ecc71"><path d="m241.64 289.56c-5.4-.07-9.8-5.28-7.83-10.36 5.41-13.94 13.73-25.79 27-33.35a8.34 8.34 0 0 1 8.94 14c-9.32 6.17-15.4 14.82-20.23 24.62-1.52 3.23-4.13 5.15-7.88 5.09z"/><path d="m303.62 255.19c-7 .39-10.92-2.48-11.52-7.12-.63-4.85 2.46-8.84 7.85-9.65a76.45 76.45 0 0 0 12.83-2.54c4.75-1.56 9-3.89 12.07-8 2.17-2.88 4.89-5 8.76-4.48 6.68.84 9.51 8.24 5.36 14-6.35 8.89-15.44 13.48-25.73 16a55 55 0 0 1 -9.62 1.79z"/><path d="m228.08 307a8.33 8.33 0 0 1 7.77 11.51c-4.52 11.91-9.45 23.67-16.24 34.52a8.23 8.23 0 0 1 -11.09 3.22c-4.09-2.17-6-6.91-3.57-11.27 5.8-10.62 10.61-21.66 15.32-32.78a8.05 8.05 0 0 1 7.81-5.2z"/><path d="m189.15 367.94a8.17 8.17 0 0 1 7.16 5.71c1.38 4 0 7.33-3.26 9.85a104.84 104.84 0 0 1 -16.73 10.66 116.15 116.15 0 0 1 -16.07 6.75c-5.63 1.88-10.05.31-11.94-4.37s.2-9.37 5.66-11.35a107.16 107.16 0 0 0 29-15.35 8.7 8.7 0 0 1 6.18-1.9z"/><path d="m127.32 387c24.48-27.35 46.74-56.28 62.24-89.85 11-23.91 17.74-48.67 13.26-75.42-4.31-25.65-16.22-47-36.61-63-27.34-21.46-58.47-27.52-91.71-18.33-36.62 10.13-60.1 34.43-70.87 71-1.52 5.24-1.34 10.76-3.63 15.72v22.39c1 3.86.59 7.87 1.46 11.77 4.58 20.34 12.77 39.2 23.23 57.13 18.78 32.17 42.29 60.62 68.4 87a14.88 14.88 0 0 0 6.68 4h18.35c.26-.24.52-.7.79-.7 4.21-.13 7.12-2.16 8.35-6.15s-.21-7.07-3.58-9.31c-1.11-.73-.92-1.34-.12-2.16 1.29-1.3 2.52-2.71 3.76-4.09zm-22.91-.41c-1.44 1.5-2.25 2.45-4.24.33-25.3-26.92-48.54-55.42-65.78-88.36-7.92-15.14-14.21-30.94-16.48-48-5.11-38.29 14.62-75.75 52-90.82a87.83 87.83 0 0 1 32.26-6.21c41.08 0 75.67 28.22 83.51 68.4 3.48 17.83.92 35.19-5.11 52.15-9.82 27.66-25.71 51.78-43.51 74.75a481.57 481.57 0 0 1 -32.65 37.75z"/><path d="m363.93 4.16c-5.2-1.93-10.7-2.52-15.93-4.16h-15.18c-.36.72-1.06.68-1.7.76a65 65 0 0 0 -37.64 18.34c-14.9 14.67-22.24 32.48-20.58 53.58.77 9.67 4.33 18.61 8.31 27.3 11.33 24.75 25.79 47.67 42 69.45 5.89 7.94 10.37 15.6 8.94 26a8.35 8.35 0 1 0 16.6.07c-1.14-10 2.18-18.1 8.77-25.28a54.12 54.12 0 0 0 4.46-6.12c14.27-20.68 27.9-41.75 38.17-64.78 4.62-10.35 8.68-21 8.46-32.53a68.42 68.42 0 0 0 -44.68-62.63zm21.35 86.84c-8.34 18.76-19.07 36.15-30.45 53.17-4.57 6.84-9.37 13.53-14.29 20.61-16.88-23.92-33-47.8-45-74.17-7-15.25-8.26-30.25-.45-45.61a51.18 51.18 0 0 1 56.91-26.6c22.86 5.31 39.6 26.05 39.55 49.32.02 8.28-2.96 15.87-6.27 23.28z"/><path d="m357.54 68.07a17 17 0 1 1 -17.17-16.88 17.2 17.2 0 0 1 17.17 16.88z"/><path d="m102.09 187.75a51.15 51.15 0 0 0 -51 51c-.1 28.15 23.08 51.42 51.15 51.33a51.15 51.15 0 0 0 -.14-102.3zm.2 85.11a34.26 34.26 0 0 1 -34.18-33.86c-.21-18.41 15.33-34.09 33.92-34.22s33.97 15.22 34.19 33.92c.25 18.43-15.22 34.05-33.93 34.16z"/></g></svg>