<svg viewBox="0 0 408.61 408.68" xmlns="http://www.w3.org/2000/svg"><path d="m403.82 248.65c21.07-97.39-28.82-193.89-120.74-232.84a193.3 193.3 0 0 0 -93.08-15.1c-73.36 6.29-128.14 42.11-164.86 105.55-14.35 24.8-21.91 52-24.36 80.5-.07.84.39 1.92-.78 2.43v3.19c1.54 2.93 1.11 5.86 0 8.78v6.39c1.11 2.92 1.54 5.85 0 8.78v3.19c1.61 4.76 1.36 9.81 2.2 14.7 13.08 75.85 55.24 128.89 125.59 159.57 18.74 8.16 38.61 12.39 59 14.09.64.06 1.35-.06 1.59.8h3.19c2.93-1.6 5.85-1 8.78 0h8c2.66-1 5.32-1.44 8 0h2.4c3-1.59 6.37-1.05 9.54-1.41 85.58-9.67 157.31-74.4 175.53-158.62zm-241.26-212.43c8.4-7.94 18-13.87 29.38-16.79 2.45-.63 3.64-.85 3.63 2.53-.15 27.11-.1 54.22-.06 81.33 0 2 .15 3.46-2.77 3.45-23.65-.12-47.29-.07-71.5-.07 9.23-26.67 20.9-51.14 41.32-70.45zm-17.56-8.22a188 188 0 0 0 -19.11 25.88 223.65 223.65 0 0 0 -21.89 48.78c-.92 2.89-2 4.17-5.36 4.12-17.37-.23-34.75-.11-53.07-.11 24.35-38.2 57.17-64.34 99.43-78.67zm-126.81 164.52a185.55 185.55 0 0 1 16.6-66 3.06 3.06 0 0 1 3.27-2.13c19 0 38 .1 57 0 3.39 0 2.47 1.83 2.08 3.5a334.8 334.8 0 0 0 -7.3 49.6c-.37 4.76-.6 9.55-.63 14.33 0 2.81-.76 3.85-3.86 3.79-10.76-.23-21.53-.09-32.3-.09s-21.27-.07-31.9 0c-2.38.08-3.15-.4-2.96-3zm16.41 89.27a187 187 0 0 1 -16.4-65.22c-.19-3 .69-3.48 3.39-3.44 10.64.15 21.27.06 31.91.06s21.27.08 31.9-.06c2.62 0 3.75.49 3.82 3.38a320.52 320.52 0 0 0 8.08 64.71c.57 2.48 0 3.12-2.62 3.1-18.75-.12-37.49-.09-56.24 0a3.61 3.61 0 0 1 -3.84-2.53zm10.91 20.21c19.05 0 37.1 0 55.15-.05 2.59 0 2.58 1.83 3.06 3.34a238.6 238.6 0 0 0 15.35 37.44c6.74 13 14.67 25.21 24.65 36a4.94 4.94 0 0 1 1.21 2c-42.16-14.33-74.93-40.5-99.42-78.73zm147.15 87.39c-11.66-2.79-21.52-8.86-30.14-17-18.61-17.54-29.91-39.61-38.73-63.17-.75-2-1.39-4-2.07-6a6.9 6.9 0 0 1 -.09-1.22h71.16c2 0 2.74.54 2.74 2.67q-.1 41.47 0 82.94c.03 2.82-1.34 2.18-2.87 1.82zm2.88-197.39c0 2.68-.47 3.92-3.42 3.57a24.85 24.85 0 0 0 -6 .08 8.93 8.93 0 0 0 -8 8.51 9 9 0 0 0 8 8.92 30.52 30.52 0 0 0 3.58.11c5.73 0 5.73 0 5.73 5.93 0 20.49-.06 41 .07 61.46 0 2.88-.54 3.78-3.63 3.76-24.21-.15-48.42-.11-72.63 0-2.38 0-3.3-.54-3.89-3.07a344.87 344.87 0 0 1 -8.55-64.3c-.15-3.36.93-3.89 3.89-3.81 7.05.19 14.1.11 21.15.05 6.22-.06 10.18-3.56 10.17-8.83s-4-8.76-10.19-8.82c-7.05-.06-14.1-.15-21.14.05-3 .09-4-.5-3.88-3.83a344.14 344.14 0 0 1 8.55-64.3c.6-2.56 1.55-3.07 3.91-3 12.1.11 24.21 0 36.31 0s23.95.08 35.92-.06c2.86 0 4.07.38 4 3.76-.1 21.25-.05 42.54.05 63.82zm68.24 188.67c19.68-21.8 32.07-47.41 40.92-74.92 1-3 2.22-3.8 5.2-3.78 16.34.14 32.68.06 49 .09 1.12 0 2.35-.42 3.76.64-23.96 37.52-56.75 63.67-98.88 77.97zm-50.68-164.76c0-2.43.91-2.77 3-2.76 13.84.08 27.67 0 41.51 0s27.4.06 41.1-.05c2.37 0 3.17.41 3.08 3a337 337 0 0 1 -8.74 65.9c-.45 1.9-1.23 2.25-2.92 2.25q-37.31 0-74.62 0c-2 0-2.39-.72-2.39-2.54q.09-32.87-.02-65.8zm0-88.26c0-2.65.75-3.26 3.31-3.25q36.53.13 73 0c2.09 0 3.15.24 3.74 2.74a337.57 337.57 0 0 1 8.61 65.09c.1 2.59-.47 3.36-3.16 3.33-13.7-.14-27.4-.06-41.1-.06s-27.4-.07-41.1.06c-2.58 0-3.34-.63-3.32-3.28q.19-32.28.01-64.63zm177.36 89.07a187.88 187.88 0 0 1 -16.46 65.21c-.88 1.95-2 2.38-3.94 2.37-9.43-.09-18.87 0-28.31 0-9.17 0-18.35-.09-27.52.05-2.61.05-3.49-.5-2.85-3.24a316 316 0 0 0 8-64.32c.07-3 1.13-3.65 4-3.63q31.71.19 63.41 0c2.79-.04 3.88.29 3.66 3.56zm-16.54-90.07a185.89 185.89 0 0 1 16.52 65.59c.17 2.61-.37 3.38-3.08 3.34-10.76-.15-21.53-.06-32.3-.06-10.5 0-21-.13-31.5.08-3.09.06-4.11-.79-4.16-3.89a310 310 0 0 0 -4.9-48.72c-.91-5.22-2-10.41-3.16-15.59-.44-2.07-.26-3 2.33-3 18.88.11 37.75.08 56.63 0a3.32 3.32 0 0 1 3.61 2.25zm-10.78-20h-47.49c-9.6 0-9.49 0-12.71-9.23-8.78-25.11-20.49-48.58-38.76-68.32a19.46 19.46 0 0 1 -1.18-1.73c42.85 14.92 75.66 41.09 100.13 79.3zm-146.85-87.28c11.52 2.79 21.27 8.81 29.78 16.84 19.22 18.13 30.7 41 39.56 65.4.53 1.48 1 3 1.68 5.06-24.24 0-48 0-71.79 0-2 0-2.4-.8-2.39-2.6 0-27.65.08-55.29 0-82.93-.05-3.23 1.68-2.14 3.16-1.77zm-3 370.57c-.06-1.07-.17-2-.17-2.85q0-40.66 0-81.34c0-1.65-.89-3.77 2.39-3.76 23.76.09 47.53.05 71.66.05a190.18 190.18 0 0 1 -10.21 26c-7.85 16.54-17.42 31.91-31 44.47-9.21 8.63-19.73 15.04-32.63 17.43z" fill="#2ecc71"/></svg>