<svg viewBox="0 0 389.75 512" xmlns="http://www.w3.org/2000/svg"><path d="m313.32 332.46c-.4 0-59.34 1.7-68.1-61.46a115.29 115.29 0 0 0 26.61-26.32c15.38-20.82 25.29-46.93 28.82-75.18a11.49 11.49 0 0 0 2.9-4.08 124.16 124.16 0 0 0 9.62-48.28c0-64.59-48.72-117.14-108.61-117.14a100.89 100.89 0 0 0 -45.21 10.73 79.35 79.35 0 0 0 -16 2.87c-24.58 7.11-44.6 25.34-56.35 51.4-11.4 25.26-13.65 55-6.33 83.72a136.29 136.29 0 0 0 5.85 17.73 11.55 11.55 0 0 0 2.71 3.93c5.72 44.1 26.7 80.64 55.31 100.58-8.79 63.27-67.71 61.51-68.11 61.56a79.21 79.21 0 0 0 -76.43 79.01v88.94a11.53 11.53 0 0 0 11.53 11.53h366.69a11.53 11.53 0 0 0 11.53-11.53v-88.94a79.22 79.22 0 0 0 -76.43-79.07zm-163.55-296.71a56.8 56.8 0 0 1 13.23-2.14 11.5 11.5 0 0 0 4.84-1.31 78.4 78.4 0 0 1 36.75-9.24c47.18 0 85.56 42.2 85.56 94.08 0 1.55-.05 3.1-.12 4.64a50.25 50.25 0 0 0 -35.9-15.06h-78.6a21.48 21.48 0 0 1 -19.93-13.46 14.13 14.13 0 0 0 -26.79 1.74 106.84 106.84 0 0 1 -26.09 46.68c-11.59-47.7 9.33-95 47.05-105.95zm-10 199.39c-15-18.33-24.83-43.07-27.94-70.17a130.65 130.65 0 0 0 33.53-47 44.57 44.57 0 0 0 30.2 11.8h78.54a27.39 27.39 0 0 1 25 16.21v.24c0 65.08-37.76 118-84.17 118-20.2 0-39.79-10.34-55.15-29.11zm26.48 47.09a83.82 83.82 0 0 0 57.31.06 90.3 90.3 0 0 0 33.53 54.36l-60.53 86.2a2 2 0 0 1 -3.27 0l-60.55-86.23a90.25 90.25 0 0 0 33.51-54.4zm200.44 206.71h-343.63v-77.41a56.14 56.14 0 0 1 56.07-56.08c.42 0 19-.45 33.63-7.11l61.63 87.76a25.07 25.07 0 0 0 20.5 10.66 25.05 25.05 0 0 0 20.5-10.66l61.61-87.75a94.91 94.91 0 0 0 33.6 7.1 56.15 56.15 0 0 1 56.08 56.08z" fill="#51b36e"/></svg>