<svg viewBox="0 0 383.86 382.08" xmlns="http://www.w3.org/2000/svg"><path d="m206.81 381.7a1.78 1.78 0 0 0 -1.39.38c.47-.14 1-.26 1.42-.38z" fill="none"/><path d="m206.84 381.7c4.3-1.07 8.76-1 13.12-1.68a188.28 188.28 0 0 0 95.62-43.42q51.8-44 65-110.78c1.13-5.73 1.67-11.57 2.52-17.36.11-.77-.4-1.81.8-2.21v-29.93c-1.93-.09-1.57-1.67-1.67-2.77a191.44 191.44 0 0 0 -95.23-148.08 185.35 185.35 0 0 0 -69-23.72 190.85 190.85 0 0 0 -39.89-1.22 187.38 187.38 0 0 0 -74.37 21.16 191.56 191.56 0 0 0 -101 142.59c-.42 2.83-.69 5.69-1.1 8.52-.16 1.1.25 2.68-1.68 2.77v29.93c1.68 4.17 1.38 8.67 2.06 13 7.87 49.63 31.55 90.15 70.59 121.66 27.35 22.08 58.7 35.23 93.5 40.23 3.36.49 6.87.07 10 1.68h29.24a1.78 1.78 0 0 1 1.39-.38zm-15-12.36c-98.44-.08-179.11-80.74-179-179 .01-98.08 80.72-178.57 179.02-178.61s179.22 80.55 179.22 178.82-80.85 178.86-179.27 178.79z"/><path d="m53.63 158.54h277.37c6.81 0 9.44-3.63 7.53-10.16a157.82 157.82 0 0 0 -13.34-31.93c-31.37-56.94-95.27-88.77-159-76.66-61.19 11.62-101.05 48.88-120.51 107.81-2.46 7.46.22 10.94 7.95 10.94zm136.57-108.42c68.15-.9 118.61 47 133.1 95.48h-263.3c13.41-45 61.61-94.6 130.2-95.48z"/><path d="m261.94 286.21c-21.36-12.53-44.81-16.77-64.12-17.11-24.91 0-42.64 3-60 9.72-13.79 5.35-26.18 12.83-35.36 24.76-3.91 5.08-3.33 8.51 1.86 12.18a152.07 152.07 0 0 0 176.57-.5c4.13-3 4.75-6.71 1.69-10.92a66.75 66.75 0 0 0 -20.64-18.13zm4.66 23.22a136.88 136.88 0 0 1 -62 21c-4.22.37-8.47.51-10.67.64-28.32-.21-52.76-6.87-75.14-20.76-3.82-2.37-3.82-2.4-.32-5.4 12.33-10.59 26.93-16.41 42.59-19.71 28.8-6.08 57-4.28 84.37 7.14a69.67 69.67 0 0 1 21.26 13.66c1.37 1.27 2.15 2-.09 3.43z"/><path d="m159.47 181.92c-9.49 2.42-18.42 6.29-25.37 13.55-8.2 8.57-8.14 19.8 0 28.43a37.46 37.46 0 0 0 9.5 7.18c15.12 8.23 31.57 10.3 48.43 10.47a115.54 115.54 0 0 0 29.31-3.24c10.37-2.57 20.29-6.22 28-14 8.76-8.82 8.73-20.33 0-29.22a45.88 45.88 0 0 0 -18.75-11.19c-23.47-7.9-47.25-8.07-71.12-1.98zm79.81 34.13c-6.81 5.88-15.16 8.42-23.71 10.34a100.05 100.05 0 0 1 -23.79 2.39c-13.45-.07-26.59-1.79-39-7.5a33.06 33.06 0 0 1 -8.47-5.4c-4.65-4.21-4.67-8.1-.08-12.33a35.59 35.59 0 0 1 13.27-7.46c23.91-7.76 47.77-7.8 71.45 1.09a32.87 32.87 0 0 1 10.24 6.06c5.07 4.43 5.15 8.45.09 12.81z"/><path d="m44.85 176.93c-4.78.83-6.47 2.77-6.51 7.5v9.71c.75 23.5 6.78 45.62 17.29 66.59a7.91 7.91 0 0 0 4.85 4.34c2 .61 3.25-1 4.81-1.47 22.87-7.5 35.68-30.52 29.9-53.43-5.6-22.17-28.19-37.08-50.34-33.24zm23 73.08c-2 1.15-2.8.87-3.8-1.22-8.56-18.07-12.49-37.15-12.94-57-.07-2.84 1.45-2.62 3.26-2.49 17.44 1.26 30.54 15.16 30.7 34-.44 11.16-6.23 20.48-17.24 26.7z"/><path d="m324.87 264.43c1.75-1 2-3.08 2.84-4.69 9.92-18.81 17-38.42 16.45-60.09 0-2.24 0-4.49 0-6.73 0-5.22-1.66-7-7-7.77a58.38 58.38 0 0 0 -20.08 1c-12.95 2.75-23.59 8.83-28.59 21.9-8.22 21.5 3.75 49.75 31.66 57.12a6.11 6.11 0 0 0 4.72-.74zm-7.75-14.75c-13.4-5.54-21.42-23.8-16.24-37.29 2.23-5.79 6.58-9.53 12.14-12 6-2.74 12.53-3 19-3.65 1.47-.14 1.33.68 1.33 1.55v5.6c-.73 16-6.16 30.63-13.13 44.82-.86 1.68-1.59 1.59-3.1.97z"/></svg>