<svg enable-background="new 0 0 512 512" viewBox="0 0 512 512" xmlns="http://www.w3.org/2000/svg"><path d="m499.904 456.607h-487.808c-6.681 0-12.096 5.415-12.096 12.096 0 6.679 5.415 12.096 12.096 12.096h487.808c6.679 0 12.096-5.417 12.096-12.096 0-6.68-5.415-12.096-12.096-12.096z"/><path d="m468.37 88.305h-84.948c-6.679 0-12.096 5.417-12.096 12.096v82.24h-60.757v-139.344c0-6.679-5.417-12.096-12.096-12.096h-84.95c-6.679 0-12.096 5.417-12.096 12.096v228.882h-60.757v-102.819c0-6.681-5.417-12.096-12.096-12.096h-84.948c-6.681 0-12.096 5.415-12.096 12.096v231.563c0 6.681 5.417 12.096 12.096 12.096h84.948 84.948 84.95 84.949 84.948c6.681 0 12.096-5.417 12.096-12.096v-300.522c.001-6.679-5.414-12.096-12.095-12.096zm-351.891 300.522h-60.757v-207.371h60.757zm84.95 0h-60.757v-92.456h60.757zm84.949-194.09v194.09h-60.758v-333.434h60.758zm84.95 194.09h-60.757v-181.994h60.757zm84.948 0h-60.756v-194.09-82.24h60.757v276.33z"/></svg>