<svg enable-background="new 0 0 512 512" viewBox="0 0 512 512" xmlns="http://www.w3.org/2000/svg"><path d="m438.21 415.136-24.977-46.878v-115.769c0-71.565-48.062-132.111-113.603-151.069v-57.788c.001-24.059-19.571-43.632-43.63-43.632s-43.631 19.573-43.631 43.632v57.789c-65.539 18.959-113.603 79.504-113.603 151.069v115.768l-24.976 46.878c-4.81 9.027-4.538 19.652.726 28.423 5.265 8.769 14.514 14.005 24.743 14.005h99.158c1.689 30.301 26.866 54.436 57.583 54.436 30.716 0 55.894-24.135 57.583-54.436h99.159c10.228 0 19.477-5.236 24.743-14.005 5.262-8.771 5.534-19.396.725-28.423zm-202.755-371.504c0-11.33 9.216-20.546 20.544-20.546s20.544 9.216 20.544 20.546v52.968c-6.726-.882-13.583-1.342-20.544-1.342-6.963 0-13.819.461-20.544 1.342zm-113.602 208.857c0-73.968 60.178-134.147 134.147-134.147s134.147 60.179 134.147 134.147v106.217h-268.294zm134.147 236.425c-17.981 0-32.795-13.792-34.435-31.35h68.872c-1.642 17.558-16.458 31.35-34.437 31.35zm161.69-57.238c-.506.843-1.999 2.802-4.948 2.802h-313.483c-2.948 0-4.443-1.959-4.948-2.802-.506-.841-1.532-3.082-.145-5.685l23.549-44.199h276.572l23.549 44.199c1.385 2.603.358 4.843-.146 5.685z"/><path d="m256 149.113c-57.002 0-103.378 46.376-103.378 103.378 0 6.374 5.168 11.543 11.543 11.543s11.543-5.169 11.543-11.543c0-44.272 36.019-80.292 80.292-80.292 6.375 0 11.543-5.169 11.543-11.543 0-6.376-5.168-11.543-11.543-11.543z"/></svg>