<svg viewBox="0 0 383.85 314.03" xmlns="http://www.w3.org/2000/svg"><path d="m381 158.83c-7.1-40-25.1-74.38-53.89-102.82-33.5-33.08-73.94-51.76-121.11-55.43a187.13 187.13 0 0 0 -86.74 13.8 189.68 189.68 0 0 0 -73.87 53.94c-23.32 27.68-37.88 59.38-43.32 95.22-.74 4.86-.64 9.84-2.07 14.6v29.18c.93 8.64 1.41 17.3 3.3 25.85a189.86 189.86 0 0 0 35.29 75.26c3 3.94 6.45 5.9 11.46 5.56 4.35-.29 8.74-.06 13.11-.06q135 0 269.9.1c5.56 0 9.34-1.75 12.68-6.17a191.3 191.3 0 0 0 34.81-74.69c1.91-8.55 2.38-17.21 3.3-25.85v-29.93c-1.7-6.06-1.77-12.39-2.85-18.56zm-54.07 39.06c8.49.1 17 0 25.48 0 5.38 0 10.75.08 16.12 0 2 0 2.48.64 2.37 2.61a190 190 0 0 1 -10.42 52.18c-.89 2.52-1.82 2.57-3.95 1.57-4.62-2.17-9.32-4.15-14-6.1-4.2-1.73-7.71-.55-9.14 2.9s.12 6.83 4.2 8.62c4.56 2 9.06 4.17 13.74 5.84 3 1.07 3 2.35 1.71 4.83a221.41 221.41 0 0 1 -16.17 26.84 6.16 6.16 0 0 1 -5.76 3c-28.61-.11-57.22-.06-85.83-.06h-53.28q-69.35 0-138.68.05a6 6 0 0 1 -5.52-2.75 197.62 197.62 0 0 1 -18.26-30.36c-1-2.05-.86-2.85 1.39-3.66 4.68-1.67 9.26-3.64 13.85-5.56 4.35-1.81 6-5.14 4.46-8.83-1.37-3.3-5-4.42-9.27-2.75-4.64 1.81-9.29 3.61-13.83 5.64-2 .89-2.76.43-3.44-1.53a186.63 186.63 0 0 1 -9.75-50.06c-.16-2.68 1.31-2.38 3-2.38h40.48c5 0 7.29-1.95 7.47-5.92.21-4.44-2.21-6.81-7.33-6.84-10.62-.07-21.24 0-31.87 0-3.12 0-6.25-.11-9.36 0-2.1.1-2.42-.72-2.3-2.63a184.83 184.83 0 0 1 10.49-51.78c.91-2.53 1.83-2.85 4.15-1.74 4.71 2.25 9.55 4.25 14.36 6.3 3.6 1.52 6.9.28 8.44-3.07a6.15 6.15 0 0 0 -3.26-8.4c-5-2.29-10-4.41-15.1-6.48-1.85-.76-2.4-1.43-1.38-3.49a185.2 185.2 0 0 1 28.61-42.24c1.33-1.47 2.1-1.52 3.46-.09 3.53 3.7 7.18 7.29 10.84 10.86 3.11 3 6.61 3.29 9.27.79 2.85-2.69 2.85-6.38-.21-9.56q-5.44-5.64-11.15-11.09c-1.36-1.29-1.25-2 .09-3.19a185.65 185.65 0 0 1 45.35-30.1c1.83-.86 2.29-.17 2.87 1.3 2 5 4 9.92 6 14.86 1.54 3.73 4.57 5.2 8 4a6.21 6.21 0 0 0 3.72-8.24 156.1 156.1 0 0 0 -5.88-14.51c-1.28-2.66-.34-3.31 1.93-4.09a187.28 187.28 0 0 1 49.04-9.58c2.52-.17 2.88.69 2.87 2.86q-.12 20.2 0 40.4c0 5 1.93 7.31 5.88 7.53 4.23.24 6.74-2 6.87-6.51.17-5.73.06-11.47.06-17.2 0-8.11.08-16.22-.05-24.32 0-2.34.61-2.9 3-2.75a188.14 188.14 0 0 1 51.52 10.46c2.34.83 3.07 1.62 1.86 4.09-2.19 4.46-4.06 9.08-6 13.67-1.8 4.33-.6 7.9 3 9.43 3.35 1.4 6.63-.32 8.48-4.51 2.05-4.67 4.08-9.34 6.05-14 .73-1.73 1.32-2.51 3.48-1.45a187.25 187.25 0 0 1 42.32 28.59c1.43 1.28 1.62 2.06.12 3.46-3.37 3.15-6.58 6.49-9.83 9.76-4.14 4.15-4.63 7.56-1.56 10.61s6.4 2.39 10.63-1.81c3.28-3.26 6.61-6.46 9.78-9.82 1.29-1.36 2-1.21 3.19.1a186.28 186.28 0 0 1 30.16 45.23c.88 1.84.14 2.3-1.32 2.87-4.76 1.85-9.5 3.73-14.21 5.68-4.31 1.77-5.86 5-4.41 8.89 1.23 3.36 4.34 4.47 8.78 2.84 4.68-1.71 9.29-3.59 13.87-5.55 2-.88 3.07-1.06 3.95 1.55a190.71 190.71 0 0 1 9.68 49.7c.17 2.67-1.23 2.42-2.9 2.41-13.5 0-27 0-40.49 0-4.93 0-7.29 2-7.51 5.93-.19 4.28 2.11 6.69 6.96 6.75z"/><path d="m262.11 126.57c-1.52-5.37-5.62-6.83-10.8-3.76-15.1 8.94-29.79 18.59-45.49 26.49-9.88 5-20.11 9.32-29.75 14.71a32 32 0 0 0 -15.22 36.18c3.69 13.78 15.9 23.19 31.77 23.34 12.19-.35 22.16-6.67 28.47-18.78 1-2 1.88-4.06 2.84-6.08a631.91 631.91 0 0 1 36.35-65.51c1.27-2.02 2.57-4 1.83-6.59zm-28 24.86a309.71 309.71 0 0 0 -19.11 36.2c-1.92 4.3-3.88 8.6-6.06 12.77-3.57 6.81-9.41 10-14.82 10.08-11.48-.06-18.46-5.36-20.59-13.94-2.23-9 1.36-17.85 9.49-21.85 14.27-7 28.71-13.67 42.62-21.41 2.17-1.21 4.27-2.56 6.46-3.73 1-.53 2-2.19 3.15-1 .8.91-.6 1.99-1.14 2.88z"/><path d="m191.74 115c12.48 0 25 .05 37.45 0 5.39 0 7.52-2.17 7.57-7.48q.09-11.59 0-23.17c0-5.56-2.16-7.69-7.76-7.7q-37.08-.06-74.16 0c-5.59 0-7.71 2.15-7.75 7.7q-.06 11.22 0 22.43c0 6.28 1.95 8.22 8.32 8.23 12.11-.01 24.22-.01 36.33-.01zm-31.94-16c0-9.65-.07-9.65 9.69-9.65 16.84 0 33.69.07 50.53-.06 2.93 0 4.12.45 4 3.77-.22 9.09 0 9.09-9.14 9.09h-23.16c-9.48 0-19-.07-28.44 0-2.44.08-3.49-.34-3.48-3.15z"/><path d="m121.59 236.35a25.5 25.5 0 1 0 25.46 25.65 25.52 25.52 0 0 0 -25.46-25.65zm-.19 38.24a13 13 0 0 1 -12.65-12.66 12.72 12.72 0 0 1 12.76-12.82 12.56 12.56 0 0 1 12.76 12.75 12.81 12.81 0 0 1 -12.87 12.73z"/><path d="m262.22 236.35a25.5 25.5 0 1 0 .16 51 25.5 25.5 0 1 0 -.16-51zm0 38.24a12.8 12.8 0 0 1 -12.69-12.92 12.56 12.56 0 0 1 12.95-12.56 12.72 12.72 0 0 1 12.57 12.63 13 13 0 0 1 -12.78 12.85z"/></svg>