<svg viewBox="0 0 122.88 119.96" xmlns="http://www.w3.org/2000/svg"><path d="m70.56 4.11c0-2.26 2.22-4.11 5-4.11s5 1.83 5 4.11v17.94c0 2.25-2.22 4.11-5 4.11s-5-1.84-5-4.11zm-56 74.83h11.44a1.34 1.34 0 0 1 1.33 1.33v8.47a1.34 1.34 0 0 1 -1.33 1.33h-11.47a1.33 1.33 0 0 1 -1.32-1.33v-8.47a1.33 1.33 0 0 1 1.32-1.33zm43.89-24.15h11.47a1.35 1.35 0 0 1 .91.36 41 41 0 0 0 -11.5 10.78h-.88a1.33 1.33 0 0 1 -1.32-1.33v-8.48a1.33 1.33 0 0 1 1.32-1.33zm-22 0h11.55a1.33 1.33 0 0 1 1.33 1.32v8.48a1.34 1.34 0 0 1 -1.33 1.33h-11.51a1.32 1.32 0 0 1 -1.32-1.32v-8.49a1.33 1.33 0 0 1 1.32-1.32zm-22 0h11.55a1.33 1.33 0 0 1 1.33 1.32v8.48a1.34 1.34 0 0 1 -1.33 1.33h-11.47a1.33 1.33 0 0 1 -1.32-1.32v-8.49a1.33 1.33 0 0 1 1.32-1.32zm22 24.15h11.55a1.34 1.34 0 0 1 1.33 1.33v8.47a1.34 1.34 0 0 1 -1.33 1.33h-11.51a1.33 1.33 0 0 1 -1.32-1.33v-8.47a1.32 1.32 0 0 1 1.32-1.33zm-10.83-74.83c0-2.26 2.22-4.11 5-4.11s5 1.83 5 4.11v17.94c0 2.25-2.23 4.11-5 4.11s-5-1.84-5-4.11zm-20.11 35.12h95.29v-20.65a2.48 2.48 0 0 0 -.74-1.78 2.51 2.51 0 0 0 -1.78-.74h-9.13a2.77 2.77 0 0 1 0-5.54h9.13a8.07 8.07 0 0 1 8.08 8.08v32.8a41.86 41.86 0 0 0 -5.62-1.51v-5.12h-95.23v53.51a2.5 2.5 0 0 0 .74 1.78 2.53 2.53 0 0 0 1.75.74h45.31a42.55 42.55 0 0 0 1.94 5.6h-47.17a8.07 8.07 0 0 1 -8.08-8.08v-79.72a8.09 8.09 0 0 1 8.08-8.08h9.75a2.77 2.77 0 1 1 0 5.54h-9.75a2.48 2.48 0 0 0 -1.78.74 2.57 2.57 0 0 0 -.74 1.78v20.66zm38.11-23.18a2.77 2.77 0 1 1 0-5.54h18.6a2.77 2.77 0 0 1 0 5.54z" fill="#212121"/><path d="m92.46 59.12a30.42 30.42 0 1 1 -30.46 30.42 30.42 30.42 0 0 1 30.46-30.42zm-3.26 42.57h6.49v5.75h-6.49zm6.49-4h-6.49c-.65-7.89-2-12.9-2-20.79a5.27 5.27 0 0 1 10.53 0c0 7.88-1.37 12.9-2 20.79z" fill="#d8453e" fill-rule="evenodd"/></svg>