<svg height="64" viewBox="0 0 512 512" width="64" xmlns="http://www.w3.org/2000/svg"><g fill="#e1564b"><path d="m428.649 163.87.215-.087-174.69-71.884-66.421-27.397v.068l-.162-.068v198.562l141.174-58.09 100.035-41.04z"/><path d="m160.65 463.853v-424.58c6.218-3.681 10.435-10.382 10.435-18.134 0-11.673-9.466-21.139-21.14-21.139-11.673 0-21.139 9.466-21.139 21.139 0 7.751 4.217 14.457 10.435 18.134v424.58c-31.797 1.862-56.105 11.84-56.105 23.902 0 13.389 29.91 24.245 66.809 24.245s66.81-10.856 66.81-24.245c0-12.062-24.308-22.041-56.105-23.902z"/></g></svg>