<svg enable-background="new 0 0 512.001 512.001" viewBox="0 0 512.001 512.001" xmlns="http://www.w3.org/2000/svg"><path d="m512 256.001c0-10.821-6.012-20.551-15.694-25.398l-38.122-19.061 38.122-19.06c.001-.001.004-.002.004-.002 9.68-4.845 15.692-14.576 15.692-25.397 0-10.819-6.013-20.55-15.694-25.397l-215.218-107.606c-15.712-7.849-34.47-7.849-50.185.001l-215.214 107.61c-9.678 4.843-15.691 14.573-15.691 25.393 0 10.821 6.012 20.551 15.694 25.398l38.121 19.06-38.126 19.063c-9.677 4.845-15.689 14.575-15.689 25.396s6.012 20.551 15.694 25.397l38.121 19.061-38.118 19.059c-9.677 4.835-15.693 14.562-15.697 25.384-.004 10.828 6.008 20.564 15.694 25.412l215.215 107.608c7.856 3.925 16.471 5.886 25.09 5.886s17.238-1.963 25.095-5.887l215.215-107.608c9.682-4.845 15.695-14.582 15.691-25.41-.004-10.822-6.02-20.549-15.694-25.381l-38.122-19.061 38.126-19.063c9.678-4.846 15.69-14.576 15.69-25.397zm-485.775-84.57c-2.339-1.171-2.687-3.226-2.687-4.346s.35-3.175 2.683-4.343l215.208-107.604c4.563-2.28 9.568-3.418 14.573-3.418 5.003 0 10.007 1.139 14.567 3.417l215.207 107.603c2.337 1.17 2.687 3.225 2.687 4.345s-.348 3.175-2.687 4.346l-215.204 107.601c-9.125 4.558-20.019 4.558-29.139.001zm459.558 169.144c2.33 1.164 2.679 3.215 2.679 4.336.001 1.123-.348 3.182-2.683 4.35l-215.208 107.604c-9.125 4.558-20.019 4.559-29.139.001l-215.207-107.604c-2.339-1.171-2.688-3.229-2.687-4.352 0-1.119.348-3.171 2.683-4.337l53.912-26.956 150.776 75.387c7.856 3.925 16.471 5.886 25.089 5.886 8.619 0 17.238-1.963 25.095-5.887l150.772-75.386zm-.005-80.23-215.207 107.604c-9.125 4.558-20.019 4.559-29.139.001l-215.207-107.603c-2.339-1.17-2.687-3.225-2.687-4.345 0-1.122.348-3.175 2.683-4.344l53.912-26.956 150.776 75.387c7.855 3.925 16.472 5.886 25.089 5.886s17.237-1.962 25.094-5.888l150.774-75.386 53.908 26.954c2.339 1.171 2.687 3.225 2.687 4.346.001 1.12-.348 3.175-2.683 4.344z"/></svg>