<svg enable-background="new 0 0 512.001 512.001" viewBox="0 0 512.001 512.001" xmlns="http://www.w3.org/2000/svg"><path d="m457.637 134.681c-29.976 0-54.363 24.387-54.363 54.363 0 10.933 3.255 21.114 8.831 29.647l-58.733 58.733c-8.534-5.576-18.715-8.831-29.648-8.831-11.329 0-21.858 3.488-30.576 9.441l-59.338-59.347c5.575-8.533 8.828-18.713 8.828-29.644 0-29.976-24.387-54.363-54.363-54.363s-54.363 24.387-54.363 54.363c0 10.931 3.254 21.108 8.827 29.641l-58.735 58.736c-8.532-5.574-18.711-8.827-29.641-8.827-29.976 0-54.363 24.388-54.363 54.364s24.387 54.363 54.363 54.363 54.363-24.387 54.363-54.363c0-10.933-3.255-21.114-8.831-29.648l58.733-58.733c8.534 5.576 18.715 8.831 29.648 8.831 10.932 0 21.113-3.255 29.646-8.831l59.666 59.674c-5.206 8.338-8.226 18.174-8.226 28.706 0 29.976 24.387 54.363 54.363 54.363s54.363-24.387 54.363-54.363c0-10.931-3.254-21.109-8.827-29.641l58.736-58.736c8.533 5.574 18.712 8.827 29.641 8.827 29.976 0 54.363-24.387 54.363-54.363 0-29.977-24.388-54.362-54.364-54.362zm-403.274 220.168c-17.586 0-31.893-14.307-31.893-31.892 0-17.586 14.307-31.893 31.893-31.893 17.585 0 31.893 14.307 31.893 31.893 0 17.585-14.307 31.892-31.893 31.892zm133.913-133.913c-17.585 0-31.893-14.307-31.893-31.893 0-17.585 14.307-31.893 31.893-31.893s31.893 14.307 31.893 31.893-14.307 31.893-31.893 31.893zm135.448 133.913c-17.585 0-31.893-14.307-31.893-31.893s14.307-31.893 31.893-31.893c17.585 0 31.893 14.307 31.893 31.893-.001 17.586-14.308 31.893-31.893 31.893zm133.913-133.913c-17.585 0-31.893-14.307-31.893-31.893 0-17.585 14.307-31.893 31.893-31.893 17.585 0 31.893 14.307 31.893 31.893s-14.308 31.893-31.893 31.893z"/><path d="m176.774 272.717c-4.388-4.387-11.501-4.387-15.889 0l-22.854 22.854c-4.387 4.387-4.387 11.501.001 15.889 2.194 2.194 5.069 3.291 7.944 3.291s5.751-1.098 7.944-3.291l22.854-22.854c4.389-4.387 4.389-11.502 0-15.889z"/><path d="m373.962 200.939c-4.388-4.387-11.5-4.387-15.89.001l-22.854 22.854c-4.387 4.387-4.387 11.501 0 15.889 2.195 2.193 5.07 3.29 7.945 3.29 2.876 0 5.75-1.098 7.944-3.291l22.854-22.854c4.388-4.388 4.388-11.502.001-15.889z"/></svg>