<svg enable-background="new 0 0 512 512" viewBox="0 0 512 512" xmlns="http://www.w3.org/2000/svg"><path d="m446.812 493.966-67.499-142.781c-1.347-2.849-3.681-5.032-6.48-6.223l-33.58-14.949 58.185-97.518c.139-.234.27-.471.395-.713 11.568-22.579 17.434-46.978 17.434-72.515 0-42.959-16.846-83.233-47.435-113.402-30.584-30.162-71.102-46.453-114.087-45.849-41.748.579-81.056 17.348-110.685 47.22-29.626 29.87-46.078 69.313-46.326 111.066-.152 25.515 5.877 50.923 17.431 73.479.124.241.255.479.394.713l58.184 97.517-33.774 15.031c-2.763 1.229-4.993 3.408-6.285 6.142l-67.497 142.782c-2.259 4.775-1.306 10.453 2.388 14.23 3.693 3.777 9.345 4.859 14.172 2.711l84.558-37.646 84.558 37.646c3.271 1.455 7.006 1.455 10.277 0l84.558-37.646 84.558 37.646c1.652.735 3.401 1.093 5.135 1.093 3.331 0 6.608-1.318 9.037-3.803 3.691-3.778 4.643-9.454 2.384-14.231zm-310.339-274.06c-9.73-19.132-14.599-39.805-14.47-61.453.428-72.429 59.686-132.17 132.094-133.173 36.166-.486 70.263 13.199 95.993 38.576 25.738 25.383 39.911 59.267 39.911 95.412 0 21.359-4.869 41.757-14.473 60.638l-108.678 182.148c-3.318 5.56-8.692 6.16-10.849 6.16-2.158 0-7.532-.6-10.849-6.16zm214.361 227.985c-3.271-1.455-7.006-1.455-10.277 0l-84.558 37.646-84.558-37.646c-3.271-1.455-7.006-1.455-10.277 0l-58.578 26.08 50.938-107.749 32.258-14.356 37.668 63.133c6.904 11.572 19.072 18.481 32.547 18.481s25.643-6.909 32.547-18.48l37.668-63.133 32.261 14.361 50.935 107.744z"/><path d="m256.004 101.607c-31.794 0-57.659 25.865-57.659 57.658s25.865 57.658 57.659 57.658c31.793.001 57.658-25.865 57.658-57.658s-25.865-57.658-57.658-57.658zm0 90.05c-17.861.001-32.393-14.529-32.393-32.392 0-17.861 14.531-32.392 32.393-32.392 17.861 0 32.392 14.531 32.392 32.392s-14.531 32.392-32.392 32.392z"/></svg>