<svg viewBox="0 0 122.88 108.67" xmlns="http://www.w3.org/2000/svg"><path d="m14.52 55.12a54.53 54.53 0 0 1 8.12-29.54 52.65 52.65 0 0 1 24.11-20.79 60.05 60.05 0 0 1 11.1-3.55 52.77 52.77 0 0 1 60.35 31.2 59.34 59.34 0 0 1 3.5 11.07 52.58 52.58 0 0 1 -1.31 27 53.18 53.18 0 0 1 -14.66 22.87 57.62 57.62 0 0 1 -22.73 13.26 48.71 48.71 0 0 1 -25 .74 47.51 47.51 0 0 1 -7.89-2.58 49.43 49.43 0 0 1 -7.56-4 3.82 3.82 0 0 1 4.16-6.41 40.79 40.79 0 0 0 6.4 3.42 40 40 0 0 0 6.62 2.16 41.07 41.07 0 0 0 21.12-.63 49.92 49.92 0 0 0 19.73-11.48 45.64 45.64 0 0 0 12.56-19.61 44.86 44.86 0 0 0 1.1-23.11 52.48 52.48 0 0 0 -3-9.67 45.1 45.1 0 0 0 -51.81-26.74 52.47 52.47 0 0 0 -9.68 3.09 45 45 0 0 0 -20.61 17.77 47 47 0 0 0 -7 26l8.75-9.72a3.83 3.83 0 1 1 5.72 5.13l-14.72 16.37a3.83 3.83 0 0 1 -5.4.28l-15.32-14.79a3.82 3.82 0 0 1 5.3-5.51zm48.19-22.23a3.83 3.83 0 1 1 7.66 0v21.9l17.27 9.59a3.82 3.82 0 0 1 -3.71 6.67l-18.93-10.53a3.83 3.83 0 0 1 -2.29-3.52z"/></svg>