<svg enable-background="new 0 0 512 512" viewBox="0 0 512 512" xmlns="http://www.w3.org/2000/svg"><path d="m374.45 332.463c-.407-.044-59.344 1.695-68.107-61.463 9.737-6.794 18.711-15.614 26.617-26.316 15.38-20.82 25.29-46.938 28.82-75.189 1.213-1.097 2.217-2.462 2.893-4.071 6.387-15.215 9.626-31.461 9.626-48.289 0-64.588-48.721-117.135-108.611-117.135-15.663 0-30.859 3.608-45.211 10.733-5.475.418-10.84 1.381-15.985 2.867-24.597 7.107-44.613 25.344-56.362 51.354-11.406 25.254-13.654 54.983-6.328 83.712 1.548 6.069 3.516 12.033 5.85 17.731.632 1.541 1.574 2.856 2.705 3.938 5.718 44.095 26.699 80.63 55.307 100.577-8.79 63.265-67.706 61.509-68.112 61.553-42.382 1.438-76.425 36.341-76.425 79.067v88.941c0 6.367 5.161 11.528 11.528 11.528h101.231 164.227 101.233c6.366 0 11.529-5.161 11.529-11.528v-88.941c-.001-42.728-34.041-77.632-76.425-79.069zm-163.557-296.712c4.207-1.216 8.65-1.937 13.206-2.142 1.691-.076 3.344-.523 4.843-1.311 11.671-6.132 24.035-9.241 36.747-9.241 47.174 0 85.554 42.203 85.554 94.078 0 1.557-.044 3.106-.112 4.649-9.15-9.292-21.863-15.067-35.902-15.067h-78.571c-4.675 0-9.112-1.468-12.833-4.246-3.177-2.371-5.633-5.558-7.1-9.216-2.272-5.658-7.874-9.197-13.972-8.814-6.12.39-11.27 4.64-12.816 10.579-4.553 17.496-13.632 33.612-26.088 46.681-11.59-47.699 9.327-95.053 47.044-105.95zm-10.03 199.389c-15.001-18.326-24.825-43.073-27.939-70.166 14.547-12.965 26.047-29.099 33.534-46.995 1.136 1.048 2.329 2.039 3.575 2.97 7.736 5.773 16.942 8.826 26.626 8.826h78.571c11.117 0 20.699 6.668 24.975 16.211-.001.082-.013.16-.013.242 0 65.078-37.76 118.023-84.174 118.023-20.2.001-39.789-10.338-55.155-29.111zm26.489 47.093c9.139 3.307 18.752 5.076 28.666 5.076 9.835 0 19.444-1.712 28.643-5.015 4.221 21.991 16.448 41.158 33.527 54.353l-60.535 86.208c-.395.563-.944.848-1.632.848-.687 0-1.236-.286-1.63-.847l-60.55-86.228c17.08-13.21 29.303-32.391 33.511-54.395zm200.465 206.71h-89.704-164.227-89.703v-77.413c0-30.922 25.157-56.079 56.079-56.079.42 0 18.971-.451 33.629-7.112l61.629 87.766c4.684 6.672 12.348 10.655 20.5 10.655h.001c8.151 0 15.816-3.983 20.5-10.655l61.618-87.752c16.717 7.099 33.18 7.099 33.6 7.099 30.922 0 56.078 25.157 56.078 56.079z"/></svg>